<?xml version="1.0" encoding="utf-8"?>
<!-- Generator: Adobe Illustrator 27.0.1, SVG Export Plug-In . SVG Version: 6.00 Build 0)  -->
<svg version="1.1" id="Layer_1" xmlns="http://www.w3.org/2000/svg" xmlns:xlink="http://www.w3.org/1999/xlink" x="0px" y="0px"
	 viewBox="0 0 500 500" style="enable-background:new 0 0 500 500;" xml:space="preserve">
<style type="text/css">
	.st0{fill:url(#SVGID_1_);}
	.st1{fill:url(#SVGID_00000093144033386331824680000012980589825882706324_);}
	.st2{fill:#FFFFFF;}
</style>
<g>
	
		<linearGradient id="SVGID_1_" gradientUnits="userSpaceOnUse" x1="100.2172" y1="384.9651" x2="271.2172" y2="233.165" gradientTransform="matrix(1 0 0 -1 0 502)">
		<stop  offset="0" style="stop-color:#9666FF"/>
		<stop  offset="1" style="stop-color:#2B398D"/>
	</linearGradient>
	<path class="st0" d="M250,114.81c-74.66,0-135.19,60.53-135.19,135.19S175.34,385.19,250,385.19S385.19,324.66,385.19,250
		S324.66,114.81,250,114.81z"/>
	
		<linearGradient id="SVGID_00000173124757721239603180000001339626290332229522_" gradientUnits="userSpaceOnUse" x1="158.5267" y1="371.7162" x2="341.4733" y2="132.2838" gradientTransform="matrix(1 0 0 -1 0 502)">
		<stop  offset="0" style="stop-color:#9666FF"/>
		<stop  offset="1" style="stop-color:#2B398D"/>
	</linearGradient>
	<path style="fill:url(#SVGID_00000173124757721239603180000001339626290332229522_);" d="M250,400.72
		c-83.11,0-150.72-67.61-150.72-150.72S166.89,99.28,250,99.28S400.72,166.89,400.72,250S333.11,400.72,250,400.72z M250,106.28
		c-79.25,0-143.72,64.47-143.72,143.72S170.75,393.72,250,393.72S393.72,329.25,393.72,250S329.25,106.28,250,106.28z"/>
	<path class="st2" d="M306.31,188.87c-10.96,10.95-23.72,23.71-37.18,37.18H177.9v-37.18H306.31z"/>
	<path class="st2" d="M260.61,234.58c-12.26,12.26-24.9,24.92-37.15,37.18h-16.63v16.65c0,0-20.24,20.28-28.93,28.99v-45.64h-45.72
		l37.19-37.18L260.61,234.58L260.61,234.58z"/>
	<g>
		<g>
			<path class="st2" d="M322.1,182.88l-2.56,2.56c-10.91,10.9-26.7,26.69-40.61,40.61h-4.24c13.4-13.41,29.31-29.31,40.17-40.17
				H177.89v-3H322.1z"/>
			<polygon class="st2" points="206.83,293.99 206.83,298.24 177.9,327.22 177.9,322.97 206.82,294 			"/>
			<path class="st2" d="M270.42,234.58c-9.08,9.07-20.06,20.07-29.23,29.25l-13.93,13.94h-16.61v-3h15.37l13.05-13.07
				c8.46-8.47,18.47-18.49,27.1-27.12L270.42,234.58L270.42,234.58z"/>
		</g>
	</g>
</g>
</svg>
